<svg width="30" height="30" viewBox="0 0 30 30" fill="none" xmlns="http://www.w3.org/2000/svg">
<path d="M16.2849 2.5C17.6916 2.50233 18.4045 2.50976 19.0205 2.5281L19.2631 2.53604C19.5434 2.546 19.8199 2.5585 20.1533 2.57413C21.4834 2.63558 22.3908 2.846 23.1876 3.15538C24.0115 3.47308 24.7074 3.90225 25.4021 4.59704C26.0959 5.29183 26.5251 5.98975 26.8439 6.81163C27.1521 7.60745 27.3626 8.51579 27.4251 9.846C27.44 10.1793 27.452 10.4558 27.4619 10.7361L27.4698 10.9787C27.488 11.5947 27.4964 12.3076 27.499 13.7144L27.5 14.6465C27.5001 14.7604 27.5001 14.8779 27.5001 14.9992L27.5 15.3518L27.4993 16.2839C27.4969 17.6907 27.4895 18.4035 27.4711 19.0195L27.4631 19.2621C27.4533 19.5424 27.4408 19.8189 27.4251 20.1523C27.3636 21.4824 27.1521 22.3898 26.8439 23.1866C26.5261 24.0105 26.0959 24.7064 25.4021 25.4011C24.7074 26.0949 24.0084 26.5241 23.1876 26.8429C22.3908 27.1511 21.4834 27.3616 20.1533 27.4241C19.8199 27.439 19.5434 27.451 19.2631 27.4609L19.0205 27.4688C18.4045 27.487 17.6916 27.4954 16.2849 27.498L15.3528 27.499C15.2389 27.4991 15.1214 27.4991 15.0001 27.4991L14.6475 27.499L13.7154 27.4983C12.3086 27.4959 11.5957 27.4885 10.9797 27.4701L10.7371 27.4621C10.4568 27.4523 10.1803 27.4398 9.84698 27.4241C8.51676 27.3626 7.61051 27.1511 6.8126 26.8429C5.98968 26.5251 5.2928 26.0949 4.59801 25.4011C3.90323 24.7064 3.4751 24.0074 3.15635 23.1866C2.84698 22.3898 2.6376 21.4824 2.5751 20.1523C2.56025 19.8189 2.54814 19.5424 2.53833 19.2621L2.53046 19.0195C2.51218 18.4035 2.50384 17.6907 2.50114 16.2839L2.50098 13.7144C2.5033 12.3076 2.51074 11.5947 2.52908 10.9787L2.53701 10.7361C2.54698 10.4558 2.55948 10.1793 2.5751 9.846C2.63655 8.51475 2.84698 7.6085 3.15635 6.81163C3.47405 5.9887 3.90323 5.29183 4.59801 4.59704C5.2928 3.90225 5.99073 3.47413 6.8126 3.15538C7.60948 2.846 8.51573 2.63663 9.84698 2.57413C10.1803 2.55928 10.4568 2.54716 10.7371 2.53735L10.9797 2.52949C11.5957 2.5112 12.3086 2.50286 13.7154 2.50016L16.2849 2.5ZM15.0001 8.74913C11.5465 8.74913 8.7501 11.5485 8.7501 14.9992C8.7501 18.4528 11.5495 21.2491 15.0001 21.2491C18.4538 21.2491 21.2501 18.4497 21.2501 14.9992C21.2501 11.5455 18.4506 8.74913 15.0001 8.74913ZM15.0001 11.2491C17.0713 11.2491 18.7501 12.9274 18.7501 14.9992C18.7501 17.0703 17.0718 18.7492 15.0001 18.7492C12.929 18.7492 11.2501 17.0708 11.2501 14.9992C11.2501 12.928 12.9284 11.2491 15.0001 11.2491ZM21.5626 6.87413C20.701 6.87413 20.0001 7.574 20.0001 8.43556C20.0001 9.29711 20.7 9.99808 21.5626 9.99808C22.4241 9.99808 23.1251 9.2982 23.1251 8.43556C23.1251 7.574 22.423 6.87304 21.5626 6.87413Z" fill="white"/>
</svg>
