<svg width="30" height="30" viewBox="0 0 30 30" fill="none" xmlns="http://www.w3.org/2000/svg">
<path d="M15.001 2.5C21.9045 2.5 27.501 8.09644 27.501 15C27.501 21.9035 21.9045 27.5 15.001 27.5C12.7086 27.5 10.5604 26.883 8.71333 25.8059L2.5062 27.5L4.19615 21.2894C3.11843 19.442 2.50098 17.2931 2.50098 15C2.50098 8.09644 8.09741 2.5 15.001 2.5ZM10.4902 9.13541C10.3284 9.14678 10.1698 9.18628 10.0255 9.26014C9.91715 9.31555 9.8166 9.39564 9.65861 9.54483C9.50943 9.68569 9.42296 9.80871 9.33186 9.92733C8.86974 10.529 8.62136 11.2676 8.62598 12.0262C8.62849 12.6395 8.78779 13.2355 9.03936 13.792C9.54953 14.9205 10.3909 16.1135 11.5022 17.2199C11.7691 17.4856 12.0307 17.7543 12.3127 18.0025C13.692 19.217 15.3358 20.0928 17.1131 20.5602C17.1131 20.5602 17.8131 20.6678 17.8234 20.6684C18.0553 20.6809 18.2868 20.6641 18.5189 20.6522C18.883 20.6335 19.2385 20.535 19.5603 20.3636C19.7671 20.2535 19.865 20.1987 20.0386 20.0892C20.0386 20.0892 20.0919 20.0532 20.1946 19.9767C20.3634 19.851 20.4676 19.7625 20.608 19.6168C20.7115 19.5093 20.8005 19.3822 20.8693 19.2391C20.967 19.0351 21.0654 18.6458 21.1045 18.3224C21.1344 18.0754 21.1254 17.9404 21.1221 17.8568C21.1168 17.7223 21.0056 17.5839 20.8839 17.5251L20.157 17.1984C20.157 17.1984 19.0701 16.7254 18.4054 16.4221C18.3361 16.3905 18.2604 16.3759 18.1843 16.3713C18.0175 16.361 17.8306 16.4045 17.7118 16.5297C17.7055 16.5272 17.6228 16.5988 16.7184 17.6944C16.6685 17.754 16.5516 17.8836 16.3495 17.8715C16.319 17.8694 16.2886 17.865 16.259 17.8573C16.1771 17.8356 16.0974 17.8071 16.0194 17.7741C15.8648 17.7085 15.8105 17.6836 15.7049 17.6381C14.9833 17.3229 14.321 16.9011 13.7356 16.385C13.5786 16.2467 13.4326 16.0979 13.2821 15.952C12.7569 15.4429 12.3269 14.9014 12.007 14.3673C11.9895 14.3381 11.9626 14.296 11.9336 14.2489C11.8813 14.1638 11.8235 14.0625 11.8054 13.993C11.759 13.8091 11.8822 13.6614 11.8822 13.6614C11.8822 13.6614 12.1865 13.3287 12.3279 13.1479C12.4639 12.9738 12.5813 12.8035 12.656 12.6821C12.8033 12.4454 12.8499 12.2008 12.7725 12.012C12.4218 11.1571 12.06 10.3067 11.6871 9.46117C11.6135 9.29431 11.3946 9.17307 11.1955 9.15009C11.1281 9.1423 11.0607 9.13447 10.993 9.13002C10.8254 9.12185 10.6575 9.12365 10.4902 9.13541Z" fill="white"/>
</svg>
